<!DOCTYPE svg PUBLIC "-//W3C//DTD SVG 1.1//EN" "http://www.w3.org/Graphics/SVG/1.1/DTD/svg11.dtd">
<!-- Uploaded to: SVG Repo, www.svgrepo.com, Transformed by: SVG Repo Mixer Tools -->
<svg width="800px" height="800px" viewBox="-51.2 -51.2 614.40 614.40" id="svg2" version="1.1" xmlns="http://www.w3.org/2000/svg" xmlns:cc="http://creativecommons.org/ns#" xmlns:dc="http://purl.org/dc/elements/1.1/" xmlns:inkscape="http://www.inkscape.org/namespaces/inkscape" xmlns:rdf="http://www.w3.org/1999/02/22-rdf-syntax-ns#" xmlns:sodipodi="http://sodipodi.sourceforge.net/DTD/sodipodi-0.dtd" xmlns:svg="http://www.w3.org/2000/svg" fill="#000000" transform="matrix(1, 0, 0, 1, 0, 0)rotate(270)" stroke="#000000">
<g id="SVGRepo_bgCarrier" stroke-width="0"/>
<g id="SVGRepo_tracerCarrier" stroke-linecap="round" stroke-linejoin="round"/>
<g id="SVGRepo_iconCarrier">
<defs id="defs6">
<marker id="DistanceX" orient="auto" refX="0.0" refY="0.0" style="overflow:visible">
<path d="M 3,-3 L -3,3 M 0,-5 L 0,5" id="path4246" style="stroke:#cccccc; stroke-width:0.5"/>
</marker>
<pattern height="8" id="Hatch" patternUnits="userSpaceOnUse" width="8" x="0" y="0">
<path d="M8 4 l-4,4" id="path4249" linecap="square" stroke="#cccccc" stroke-width="0.25"/>
<path d="M6 2 l-4,4" id="path4251" linecap="square" stroke="#cccccc" stroke-width="0.25"/>
<path d="M4 0 l-4,4" id="path4253" linecap="square" stroke="#cccccc" stroke-width="0.25"/>
</pattern>
<symbol id="*Model_Space"/>
<symbol id="*Paper_Space"/>
<symbol id="*Paper_Space0"/>
<symbol id="BT_steering">
<path d="M 802.127245,-62.119369 C 593.861073,-62.119369 424.127239,107.614477 424.127239,315.880631" id="path4259" style="stroke:#ff0000;fill:none"/>
<path d="M 424.127239,315.880631 C 424.127239,315.883988 424.127239,315.887351 424.127239,315.890709" id="path4261" style="stroke:#ff0000;fill:none"/>
<path d="M 424.127239,315.890709 C 424.164503,453.368820 498.985061,580.151788 619.315676,646.640709" id="path4263" style="stroke:#ff0000;fill:none"/>
<path d="M 619.315676,646.640709 C 625.533907,650.076919 632.522121,651.879771 639.626622,651.880628" id="path4265" style="stroke:#ff0000;fill:none"/>
<path d="M 639.626622,651.880628 C 639.626622,651.880628 964.030675,651.880628 964.030675,651.880628" id="path4267" style="stroke:#ff0000;fill:none"/>
<path d="M 964.030675,651.880628 C 971.107031,651.880580 978.068690,650.092759 984.269432,646.683128" id="path4269" style="stroke:#ff0000;fill:none"/>
<path d="M 984.269432,646.683128 C 1104.859075,580.370302 1179.955061,453.552987 1180.127245,315.933128" id="path4271" style="stroke:#ff0000;fill:none"/>
<path d="M 1180.127245,315.933128 C 1180.127257,315.915633 1180.127257,315.898132 1180.127245,315.880631" id="path4273" style="stroke:#ff0000;fill:none"/>
<path d="M 1180.127245,315.880631 C 1180.127245,107.614477 1010.393399,-62.119369 802.127245,-62.119369" id="path4275" style="stroke:#ff0000;fill:none"/>
<path d="M 802.127245,21.880630 C 938.621313,21.880630 1052.805975,113.988545 1086.214591,239.683438" id="path4277" style="stroke:#ff0000;fill:none"/>
<path d="M 802.127245,-62.119369 L 802.127245,-62.119369 L 802.127245,-62.119369 z" id="path4279" style="stroke:#ff0000;fill:none"/>
<path d="M 518.039898,239.683438 C 551.448330,113.988444 665.632992,21.880630 802.127245,21.880630" id="path4281" style="stroke:#ff0000;fill:none"/>
<path d="M 1086.214591,239.683438 L 518.039898,239.683438 L 1086.214591,239.683438 z" id="path4283" style="stroke:#ff0000;fill:none"/>
<path d="M 508.668647,333.248284 C 549.214582,337.087252 621.477485,351.692785 675.264278,405.649059" id="path4285" style="stroke:#ff0000;fill:none"/>
<path d="M 675.264278,405.649059 C 737.704669,468.286266 749.697538,538.342869 751.901158,567.880629" id="path4287" style="stroke:#ff0000;fill:none"/>
<path d="M 802.127245,21.880630 L 802.127245,21.880630 L 802.127245,21.880630 z" id="path4289" style="stroke:#ff0000;fill:none"/>
<path d="M 651.173332,567.880629 C 567.660327,517.886218 514.413938,430.087973 508.668647,333.248284" id="path4291" style="stroke:#ff0000;fill:none"/>
<path d="M 751.901158,567.880629 L 651.173332,567.880629 L 751.901158,567.880629 z" id="path4293" style="stroke:#ff0000;fill:none"/>
<path d="M 1095.562865,333.251647 C 1089.700775,430.190974 1036.247509,518.011964 952.529897,567.880629" id="path4295" style="stroke:#ff0000;fill:none"/>
<path d="M 508.668647,333.248284 L 508.668647,333.248284 L 508.668647,333.248284 z" id="path4297" style="stroke:#ff0000;fill:none"/>
<path d="M 852.353331,567.880629 C 854.556952,538.342869 866.549820,468.286266 928.990212,405.649059" id="path4299" style="stroke:#ff0000;fill:none"/>
<path d="M 928.990212,405.649059 C 982.767028,351.702780 1055.012674,337.093824 1095.562865,333.251564" id="path4301" style="stroke:#ff0000;fill:none"/>
<path d="M 952.529897,567.880629 L 852.353331,567.880629 L 952.529897,567.880629 z" id="path4303" style="stroke:#ff0000;fill:none"/>
<path d="M 1095.562865,333.251564 L 1095.562865,333.251647 L 1095.562865,333.251564 z" id="path4305" style="stroke:#ff0000;fill:none"/>
</symbol>
<marker id="DistanceX-9" orient="auto" refX="0.0" refY="0.0" style="overflow:visible">
<path d="M 3,-3 L -3,3 M 0,-5 L 0,5" id="path4415" style="stroke:#cccccc; stroke-width:0.5"/>
</marker>
<pattern height="8" id="Hatch-7" patternUnits="userSpaceOnUse" width="8" x="0" y="0">
<path d="M8 4 l-4,4" id="path4418" linecap="square" stroke="#cccccc" stroke-width="0.25"/>
<path d="M6 2 l-4,4" id="path4420" linecap="square" stroke="#cccccc" stroke-width="0.25"/>
<path d="M4 0 l-4,4" id="path4422" linecap="square" stroke="#cccccc" stroke-width="0.25"/>
</pattern>
<symbol id="*Model_Space-8"/>
<symbol id="*Paper_Space-3"/>
<symbol id="*Paper_Space0-3"/>
<symbol id="BT_steering-6">
<path d="M 802.127245,-62.119369 C 593.861073,-62.119369 424.127239,107.614477 424.127239,315.880631" id="path4428" style="stroke:#ff0000;fill:none"/>
<path d="M 424.127239,315.880631 C 424.127239,315.883988 424.127239,315.887351 424.127239,315.890709" id="path4430" style="stroke:#ff0000;fill:none"/>
<path d="M 424.127239,315.890709 C 424.164503,453.368820 498.985061,580.151788 619.315676,646.640709" id="path4432" style="stroke:#ff0000;fill:none"/>
<path d="M 619.315676,646.640709 C 625.533907,650.076919 632.522121,651.879771 639.626622,651.880628" id="path4434" style="stroke:#ff0000;fill:none"/>
<path d="M 639.626622,651.880628 C 639.626622,651.880628 964.030675,651.880628 964.030675,651.880628" id="path4436" style="stroke:#ff0000;fill:none"/>
<path d="M 964.030675,651.880628 C 971.107031,651.880580 978.068690,650.092759 984.269432,646.683128" id="path4438" style="stroke:#ff0000;fill:none"/>
<path d="M 984.269432,646.683128 C 1104.859075,580.370302 1179.955061,453.552987 1180.127245,315.933128" id="path4440" style="stroke:#ff0000;fill:none"/>
<path d="M 1180.127245,315.933128 C 1180.127257,315.915633 1180.127257,315.898132 1180.127245,315.880631" id="path4442" style="stroke:#ff0000;fill:none"/>
<path d="M 1180.127245,315.880631 C 1180.127245,107.614477 1010.393399,-62.119369 802.127245,-62.119369" id="path4444" style="stroke:#ff0000;fill:none"/>
<path d="M 802.127245,21.880630 C 938.621313,21.880630 1052.805975,113.988545 1086.214591,239.683438" id="path4446" style="stroke:#ff0000;fill:none"/>
<path d="M 802.127245,-62.119369 L 802.127245,-62.119369 L 802.127245,-62.119369 z" id="path4448" style="stroke:#ff0000;fill:none"/>
<path d="M 518.039898,239.683438 C 551.448330,113.988444 665.632992,21.880630 802.127245,21.880630" id="path4450" style="stroke:#ff0000;fill:none"/>
<path d="M 1086.214591,239.683438 L 518.039898,239.683438 L 1086.214591,239.683438 z" id="path4452" style="stroke:#ff0000;fill:none"/>
<path d="M 508.668647,333.248284 C 549.214582,337.087252 621.477485,351.692785 675.264278,405.649059" id="path4454" style="stroke:#ff0000;fill:none"/>
<path d="M 675.264278,405.649059 C 737.704669,468.286266 749.697538,538.342869 751.901158,567.880629" id="path4456" style="stroke:#ff0000;fill:none"/>
<path d="M 802.127245,21.880630 L 802.127245,21.880630 L 802.127245,21.880630 z" id="path4458" style="stroke:#ff0000;fill:none"/>
<path d="M 651.173332,567.880629 C 567.660327,517.886218 514.413938,430.087973 508.668647,333.248284" id="path4460" style="stroke:#ff0000;fill:none"/>
<path d="M 751.901158,567.880629 L 651.173332,567.880629 L 751.901158,567.880629 z" id="path4462" style="stroke:#ff0000;fill:none"/>
<path d="M 1095.562865,333.251647 C 1089.700775,430.190974 1036.247509,518.011964 952.529897,567.880629" id="path4464" style="stroke:#ff0000;fill:none"/>
<path d="M 508.668647,333.248284 L 508.668647,333.248284 L 508.668647,333.248284 z" id="path4466" style="stroke:#ff0000;fill:none"/>
<path d="M 852.353331,567.880629 C 854.556952,538.342869 866.549820,468.286266 928.990212,405.649059" id="path4468" style="stroke:#ff0000;fill:none"/>
<path d="M 928.990212,405.649059 C 982.767028,351.702780 1055.012674,337.093824 1095.562865,333.251564" id="path4470" style="stroke:#ff0000;fill:none"/>
<path d="M 952.529897,567.880629 L 852.353331,567.880629 L 952.529897,567.880629 z" id="path4472" style="stroke:#ff0000;fill:none"/>
<path d="M 1095.562865,333.251564 L 1095.562865,333.251647 L 1095.562865,333.251564 z" id="path4474" style="stroke:#ff0000;fill:none"/>
</symbol>
</defs>
<path d="M 247.44179,46.557852 C 151.47822,50.244921 68.662649,114.97029 41.901952,207.20082 c -26.760719,92.23053 8.54934,191.23013 87.636328,245.7082 11.86848,8.17539 25.94062,12.55313 40.35235,12.55313 57.40625,0 114.8125,0 172.21875,0 14.41173,0 28.48385,-4.37774 40.35233,-12.55313 79.08701,-54.47807 114.39705,-153.47767 87.63634,-245.7082 C 443.33733,114.97029 360.5218,50.244921 264.55821,46.557852 c -6.34618,-0.0054 -10.91379,-0.04218 -17.11642,0 z m 7.89492,52.811722 0.007,0 0.007,0 c 0.44628,0.0379 0.88351,0.0185 1.29845,0 l 0.007,0 0.007,0 c 76.35161,0.2981 143.1355,51.479266 163.27265,125.128126 -0.64112,0.17646 -0.64187,0.17656 0,8e-4 1.2929,4.72868 -2.27665,9.40547 -7.17891,9.40547 l -156.75703,0 -156.75703,0 c -4.902251,0 -8.471807,-4.67679 -7.178903,-9.40547 0.641868,0.17538 0.641112,0.17528 0,-8e-4 C 112.2012,150.84884 178.98544,99.667674 255.33671,99.369574 Z M 94.915229,284.44614 c 0.615531,-0.0108 1.246671,0.055 1.883211,0.20741 60.33773,14.44715 108.88138,59.1281 128.26992,118.06407 1.58106,4.80606 -2.01163,9.76992 -7.0711,9.76992 l -48.10663,0 c -3.67888,0 -7.27113,-1.11699 -10.30079,-3.20391 -39.2036,-27.0047 -65.283959,-69.21483 -71.895707,-116.35781 -0.636348,-4.5373 2.91246,-8.40137 7.221096,-8.47968 z m 322.169531,0 c 4.30865,0.0784 7.85745,3.94238 7.2211,8.47968 -6.61174,47.14298 -32.69211,89.35311 -71.89571,116.35781 -3.02965,2.08692 -6.6219,3.20391 -10.30077,3.20391 l -48.10665,0 c -5.05945,0 -8.65217,-4.96386 -7.07108,-9.76992 19.3885,-58.93597 67.93217,-103.61692 128.26992,-118.06407 0.63653,-0.1524 1.26768,-0.21857 1.88319,-0.20741 z" id="rect4658" style="color:#cccccc;clip-rule:nonzero;display:inline;overflow:visible;visibility:visible;opacity:1;isolation:auto;mix-blend-mode:normal;color-interpolation:sRGB;color-interpolation-filters:linearRGB;solid-color:#cccccc;solid-opacity:1;fill:#cccccc;fill-opacity:1;fill-rule:evenodd;stroke:none;stroke-width:20;stroke-linecap:round;stroke-linejoin:round;stroke-miterlimit:4;stroke-dasharray:none;stroke-dashoffset:0;stroke-opacity:1;color-rendering:auto;image-rendering:auto;shape-rendering:auto;text-rendering:auto;enable-background:accumulate"/>
</g>
</svg>